<mxfile host="app.diagrams.net" modified="2022-09-16T09:52:32.139Z" agent="5.0 (Macintosh; Intel Mac OS X 10_15_7) AppleWebKit/537.36 (KHTML, like Gecko) Chrome/105.0.0.0 Safari/537.36" etag="QnAlI5s_4V5l8TaHHAqq" version="20.3.1" type="github">
  <diagram id="82UUYT1Q0SkO9JnXrcC1" name="第 1 页">
    <mxGraphModel dx="383" dy="1438" grid="1" gridSize="10" guides="1" tooltips="1" connect="1" arrows="1" fold="1" page="1" pageScale="1" pageWidth="827" pageHeight="1169" math="0" shadow="0">
      <root>
        <mxCell id="0" />
        <mxCell id="1" parent="0" />
        <mxCell id="See2MY633tehe9pQUOF3-32" value="@yushu/effecttool" style="shape=umlFrame;whiteSpace=wrap;html=1;shadow=0;width=150;height=40;" vertex="1" parent="1">
          <mxGeometry x="40" y="360" width="1310" height="804" as="geometry" />
        </mxCell>
        <mxCell id="See2MY633tehe9pQUOF3-23" value="@yushu/three-base" style="shape=umlFrame;whiteSpace=wrap;html=1;width=140;height=30;shadow=0;" vertex="1" parent="1">
          <mxGeometry x="30" y="-20" width="660" height="317" as="geometry" />
        </mxCell>
        <mxCell id="See2MY633tehe9pQUOF3-15" value="AdvancedMeshLoader" style="swimlane;fontStyle=1;align=center;verticalAlign=top;childLayout=stackLayout;horizontal=1;startSize=26;horizontalStack=0;resizeParent=1;resizeParentMax=0;resizeLast=0;collapsible=1;marginBottom=0;" vertex="1" parent="1">
          <mxGeometry x="320" y="377" width="400" height="158" as="geometry" />
        </mxCell>
        <mxCell id="See2MY633tehe9pQUOF3-16" value="projectId: 项目id&#xa;floorBimId: 楼层bimid&#xa;" style="text;strokeColor=none;fillColor=none;align=left;verticalAlign=top;spacingLeft=4;spacingRight=4;overflow=hidden;rotatable=0;points=[[0,0.5],[1,0.5]];portConstraint=eastwest;" vertex="1" parent="See2MY633tehe9pQUOF3-15">
          <mxGeometry y="26" width="400" height="54" as="geometry" />
        </mxCell>
        <mxCell id="See2MY633tehe9pQUOF3-17" value="" style="line;strokeWidth=1;fillColor=none;align=left;verticalAlign=middle;spacingTop=-1;spacingLeft=3;spacingRight=3;rotatable=0;labelPosition=right;points=[];portConstraint=eastwest;strokeColor=inherit;" vertex="1" parent="See2MY633tehe9pQUOF3-15">
          <mxGeometry y="80" width="400" height="8" as="geometry" />
        </mxCell>
        <mxCell id="See2MY633tehe9pQUOF3-18" value="hasAdvancedMesh(meshUrl: string): boolean 检查是否有高阶版本模型&#xa;getAdvancedMesh(meshUrl: string): Mesh 获取高阶版模型&#xa;getAdvancedMtl(meshUrl: string): Material 获取高阶版带贴图材质&#xa;" style="text;strokeColor=none;fillColor=none;align=left;verticalAlign=top;spacingLeft=4;spacingRight=4;overflow=hidden;rotatable=0;points=[[0,0.5],[1,0.5]];portConstraint=eastwest;" vertex="1" parent="See2MY633tehe9pQUOF3-15">
          <mxGeometry y="88" width="400" height="70" as="geometry" />
        </mxCell>
        <mxCell id="See2MY633tehe9pQUOF3-24" value="OBJLoader" style="swimlane;fontStyle=0;childLayout=stackLayout;horizontal=1;startSize=26;fillColor=none;horizontalStack=0;resizeParent=1;resizeParentMax=0;resizeLast=0;collapsible=1;marginBottom=0;shadow=0;" vertex="1" parent="1">
          <mxGeometry x="90" y="40" width="140" height="52" as="geometry" />
        </mxCell>
        <mxCell id="See2MY633tehe9pQUOF3-25" value="加载obj格式的模型" style="text;strokeColor=none;fillColor=none;align=left;verticalAlign=top;spacingLeft=4;spacingRight=4;overflow=hidden;rotatable=0;points=[[0,0.5],[1,0.5]];portConstraint=eastwest;shadow=0;" vertex="1" parent="See2MY633tehe9pQUOF3-24">
          <mxGeometry y="26" width="140" height="26" as="geometry" />
        </mxCell>
        <mxCell id="See2MY633tehe9pQUOF3-28" value="MTLLoader" style="swimlane;fontStyle=0;childLayout=stackLayout;horizontal=1;startSize=26;fillColor=none;horizontalStack=0;resizeParent=1;resizeParentMax=0;resizeLast=0;collapsible=1;marginBottom=0;shadow=0;" vertex="1" parent="1">
          <mxGeometry x="350" y="40" width="140" height="52" as="geometry" />
        </mxCell>
        <mxCell id="See2MY633tehe9pQUOF3-29" value="加载mtl格式的材质" style="text;strokeColor=none;fillColor=none;align=left;verticalAlign=top;spacingLeft=4;spacingRight=4;overflow=hidden;rotatable=0;points=[[0,0.5],[1,0.5]];portConstraint=eastwest;shadow=0;" vertex="1" parent="See2MY633tehe9pQUOF3-28">
          <mxGeometry y="26" width="140" height="26" as="geometry" />
        </mxCell>
        <mxCell id="See2MY633tehe9pQUOF3-30" style="edgeStyle=orthogonalEdgeStyle;rounded=0;orthogonalLoop=1;jettySize=auto;html=1;exitX=1;exitY=0.5;exitDx=0;exitDy=0;" edge="1" parent="1" source="See2MY633tehe9pQUOF3-25" target="See2MY633tehe9pQUOF3-16">
          <mxGeometry relative="1" as="geometry">
            <Array as="points">
              <mxPoint x="250" y="79" />
              <mxPoint x="250" y="455" />
            </Array>
          </mxGeometry>
        </mxCell>
        <mxCell id="See2MY633tehe9pQUOF3-31" style="edgeStyle=orthogonalEdgeStyle;rounded=0;orthogonalLoop=1;jettySize=auto;html=1;exitX=0;exitY=0.5;exitDx=0;exitDy=0;" edge="1" parent="1" source="See2MY633tehe9pQUOF3-29">
          <mxGeometry relative="1" as="geometry">
            <mxPoint x="320" y="460" as="targetPoint" />
            <Array as="points">
              <mxPoint x="280" y="79" />
              <mxPoint x="280" y="460" />
            </Array>
          </mxGeometry>
        </mxCell>
        <mxCell id="See2MY633tehe9pQUOF3-37" value="EffectLoader" style="swimlane;fontStyle=1;align=center;verticalAlign=top;childLayout=stackLayout;horizontal=1;startSize=26;horizontalStack=0;resizeParent=1;resizeParentMax=0;resizeLast=0;collapsible=1;marginBottom=0;shadow=0;" vertex="1" parent="1">
          <mxGeometry x="800" y="377" width="340" height="278" as="geometry" />
        </mxCell>
        <mxCell id="See2MY633tehe9pQUOF3-38" value="scene: 场景实例，要将具体的场景实例传入&#xa;" style="text;strokeColor=none;fillColor=none;align=left;verticalAlign=top;spacingLeft=4;spacingRight=4;overflow=hidden;rotatable=0;points=[[0,0.5],[1,0.5]];portConstraint=eastwest;shadow=0;" vertex="1" parent="See2MY633tehe9pQUOF3-37">
          <mxGeometry y="26" width="340" height="84" as="geometry" />
        </mxCell>
        <mxCell id="See2MY633tehe9pQUOF3-39" value="" style="line;strokeWidth=1;fillColor=none;align=left;verticalAlign=middle;spacingTop=-1;spacingLeft=3;spacingRight=3;rotatable=0;labelPosition=right;points=[];portConstraint=eastwest;strokeColor=inherit;shadow=0;" vertex="1" parent="See2MY633tehe9pQUOF3-37">
          <mxGeometry y="110" width="340" height="8" as="geometry" />
        </mxCell>
        <mxCell id="See2MY633tehe9pQUOF3-40" value="createLinkLine(relA, relB, color, num): 创建飞行线&#xa;outlineMesh(sourceId: string): 设置设备处于外发光，&#xa;具体实现方法需要讨论&#xa;update(): void, 每帧更新调用" style="text;strokeColor=none;fillColor=none;align=left;verticalAlign=top;spacingLeft=4;spacingRight=4;overflow=hidden;rotatable=0;points=[[0,0.5],[1,0.5]];portConstraint=eastwest;shadow=0;" vertex="1" parent="See2MY633tehe9pQUOF3-37">
          <mxGeometry y="118" width="340" height="160" as="geometry" />
        </mxCell>
        <mxCell id="See2MY633tehe9pQUOF3-41" value="SceneLoader" style="swimlane;fontStyle=1;align=center;verticalAlign=top;childLayout=stackLayout;horizontal=1;startSize=26;horizontalStack=0;resizeParent=1;resizeParentMax=0;resizeLast=0;collapsible=1;marginBottom=0;shadow=0;" vertex="1" parent="1">
          <mxGeometry x="210" y="655" width="570" height="308" as="geometry" />
        </mxCell>
        <mxCell id="See2MY633tehe9pQUOF3-42" value="projectId: 项目id&#xa;" style="text;strokeColor=none;fillColor=none;align=left;verticalAlign=top;spacingLeft=4;spacingRight=4;overflow=hidden;rotatable=0;points=[[0,0.5],[1,0.5]];portConstraint=eastwest;shadow=0;" vertex="1" parent="See2MY633tehe9pQUOF3-41">
          <mxGeometry y="26" width="570" height="24" as="geometry" />
        </mxCell>
        <mxCell id="See2MY633tehe9pQUOF3-46" value="sceneName: 场景名称&#xa;" style="text;strokeColor=none;fillColor=none;align=left;verticalAlign=top;spacingLeft=4;spacingRight=4;overflow=hidden;rotatable=0;points=[[0,0.5],[1,0.5]];portConstraint=eastwest;shadow=0;" vertex="1" parent="See2MY633tehe9pQUOF3-41">
          <mxGeometry y="50" width="570" height="24" as="geometry" />
        </mxCell>
        <mxCell id="See2MY633tehe9pQUOF3-43" value="" style="line;strokeWidth=1;fillColor=none;align=left;verticalAlign=middle;spacingTop=-1;spacingLeft=3;spacingRight=3;rotatable=0;labelPosition=right;points=[];portConstraint=eastwest;strokeColor=inherit;shadow=0;" vertex="1" parent="See2MY633tehe9pQUOF3-41">
          <mxGeometry y="74" width="570" height="4" as="geometry" />
        </mxCell>
        <mxCell id="See2MY633tehe9pQUOF3-44" value="loadMeshes: 加载场景中用到的模型&#xa;initLightAndShadow: 加载场景中的光影效果&#xa;initCameraModel: 配置场景中的摄像机的参数&#xa;initSceneAmb: 初始换场景的环境信息" style="text;strokeColor=none;fillColor=none;align=left;verticalAlign=top;spacingLeft=4;spacingRight=4;overflow=hidden;rotatable=0;points=[[0,0.5],[1,0.5]];portConstraint=eastwest;shadow=0;" vertex="1" parent="See2MY633tehe9pQUOF3-41">
          <mxGeometry y="78" width="570" height="230" as="geometry" />
        </mxCell>
      </root>
    </mxGraphModel>
  </diagram>
</mxfile>
